# xmcd CD database file
#
# Track frame offsets:
#	5887
#	17042
#	36872
#	58972
#	81232
#	109587
#	136305
#	152092
#	180060
#	199970
#	217230
#	243310
#	282447
#
# Disc length: 4098 seconds
#
# Revision: 0
# Processed by: cddbd v1.5.1PL0 Copyright (c) Steve Scherf et al.
# Submitted via: CDex 1.51
#
DISCID=c60fb40d
DTITLE=Aereda - From A Long Forgotten Future
DYEAR=2000
DGENRE=New Age
TTITLE0=Tramontana
TTITLE1=Valley Of Gold
TTITLE2=Destiny ( Isede )
TTITLE3=Hallelujah
TTITLE4=Sacris Solemniis
TTITLE5=No Time To Waste
TTITLE6=Lost Forest
TTITLE7=Ruins Of Bethania
TTITLE8=Yileleh
TTITLE9=Awakening
TTITLE10=Ormus
TTITLE11=Transfiguration ( Et In Arcadia Ego IV )
TTITLE12=Data
EXTD=YEAR: 2000
EXTT0=
EXTT1=
EXTT2=
EXTT3=
EXTT4=
EXTT5=
EXTT6=
EXTT7=
EXTT8=
EXTT9=
EXTT10=
EXTT11=
EXTT12=
PLAYORDER=
